<svg xmlns="http://www.w3.org/2000/svg" xmlns:xlink="http://www.w3.org/1999/xlink" width="500" zoomAndPan="magnify" viewBox="0 0 375 374.999991" height="500" preserveAspectRatio="xMidYMid meet" version="1.0"><defs><g/></defs><g fill="#000000" fill-opacity="1"><g transform="translate(117.919918, 201.959226)"><g><path d="M 32.21875 -23.46875 C 35.101562 -23.46875 37.398438 -22.59375 39.109375 -20.84375 C 40.816406 -19.101562 41.671875 -16.675781 41.671875 -13.5625 L 41.671875 0 L 34.59375 0 L 34.59375 -12.609375 C 34.59375 -14.109375 34.195312 -15.265625 33.40625 -16.078125 C 32.613281 -16.898438 31.523438 -17.3125 30.140625 -17.3125 C 28.753906 -17.3125 27.664062 -16.898438 26.875 -16.078125 C 26.082031 -15.265625 25.6875 -14.109375 25.6875 -12.609375 L 25.6875 0 L 18.609375 0 L 18.609375 -12.609375 C 18.609375 -14.109375 18.210938 -15.265625 17.421875 -16.078125 C 16.628906 -16.898438 15.539062 -17.3125 14.15625 -17.3125 C 12.769531 -17.3125 11.679688 -16.898438 10.890625 -16.078125 C 10.097656 -15.265625 9.703125 -14.109375 9.703125 -12.609375 L 9.703125 0 L 2.578125 0 L 2.578125 -23.234375 L 9.703125 -23.234375 L 9.703125 -20.3125 C 10.421875 -21.28125 11.363281 -22.046875 12.53125 -22.609375 C 13.695312 -23.179688 15.015625 -23.46875 16.484375 -23.46875 C 18.234375 -23.46875 19.796875 -23.09375 21.171875 -22.34375 C 22.546875 -21.601562 23.617188 -20.535156 24.390625 -19.140625 C 25.191406 -20.421875 26.285156 -21.460938 27.671875 -22.265625 C 29.066406 -23.066406 30.582031 -23.46875 32.21875 -23.46875 Z M 32.21875 -23.46875 "/></g></g></g><g fill="#000000" fill-opacity="1"><g transform="translate(161.988321, 201.959226)"><g><path d="M 13.15625 0.328125 C 10.875 0.328125 8.820312 -0.15625 7 -1.125 C 5.1875 -2.09375 3.757812 -3.476562 2.71875 -5.28125 C 1.6875 -7.082031 1.171875 -9.191406 1.171875 -11.609375 C 1.171875 -13.992188 1.695312 -16.09375 2.75 -17.90625 C 3.800781 -19.726562 5.242188 -21.125 7.078125 -22.09375 C 8.910156 -23.070312 10.960938 -23.5625 13.234375 -23.5625 C 15.515625 -23.5625 17.566406 -23.070312 19.390625 -22.09375 C 21.222656 -21.125 22.664062 -19.726562 23.71875 -17.90625 C 24.78125 -16.09375 25.3125 -13.992188 25.3125 -11.609375 C 25.3125 -9.222656 24.773438 -7.117188 23.703125 -5.296875 C 22.640625 -3.484375 21.179688 -2.09375 19.328125 -1.125 C 17.484375 -0.15625 15.425781 0.328125 13.15625 0.328125 Z M 13.15625 -5.828125 C 14.507812 -5.828125 15.664062 -6.328125 16.625 -7.328125 C 17.582031 -8.328125 18.0625 -9.753906 18.0625 -11.609375 C 18.0625 -13.472656 17.597656 -14.90625 16.671875 -15.90625 C 15.742188 -16.90625 14.597656 -17.40625 13.234375 -17.40625 C 11.847656 -17.40625 10.695312 -16.910156 9.78125 -15.921875 C 8.863281 -14.929688 8.40625 -13.492188 8.40625 -11.609375 C 8.40625 -9.753906 8.851562 -8.328125 9.75 -7.328125 C 10.65625 -6.328125 11.789062 -5.828125 13.15625 -5.828125 Z M 22.140625 -31.21875 L 22.140625 -26.3125 L 5.5 -26.3125 L 5.5 -31.21875 Z M 22.140625 -31.21875 "/></g></g></g><g fill="#000000" fill-opacity="1"><g transform="translate(188.495938, 201.959226)"><g><path d="M 16.734375 -23.46875 C 19.453125 -23.46875 21.625 -22.585938 23.25 -20.828125 C 24.875 -19.066406 25.6875 -16.644531 25.6875 -13.5625 L 25.6875 0 L 18.609375 0 L 18.609375 -12.609375 C 18.609375 -14.160156 18.203125 -15.367188 17.390625 -16.234375 C 16.585938 -17.097656 15.507812 -17.53125 14.15625 -17.53125 C 12.789062 -17.53125 11.707031 -17.097656 10.90625 -16.234375 C 10.101562 -15.367188 9.703125 -14.160156 9.703125 -12.609375 L 9.703125 0 L 2.578125 0 L 2.578125 -23.234375 L 9.703125 -23.234375 L 9.703125 -20.140625 C 10.421875 -21.171875 11.390625 -21.984375 12.609375 -22.578125 C 13.828125 -23.171875 15.203125 -23.46875 16.734375 -23.46875 Z M 16.734375 -23.46875 "/></g></g></g><g fill="#000000" fill-opacity="1"><g transform="translate(216.543242, 201.959226)"><g><path d="M 1.171875 -11.65625 C 1.171875 -14.039062 1.617188 -16.132812 2.515625 -17.9375 C 3.421875 -19.738281 4.648438 -21.125 6.203125 -22.09375 C 7.753906 -23.070312 9.488281 -23.5625 11.40625 -23.5625 C 13.039062 -23.5625 14.472656 -23.226562 15.703125 -22.5625 C 16.941406 -21.894531 17.894531 -21.019531 18.5625 -19.9375 L 18.5625 -23.234375 L 25.6875 -23.234375 L 25.6875 0 L 18.5625 0 L 18.5625 -3.28125 C 17.875 -2.207031 16.910156 -1.335938 15.671875 -0.671875 C 14.429688 -0.00390625 12.992188 0.328125 11.359375 0.328125 C 9.472656 0.328125 7.753906 -0.160156 6.203125 -1.140625 C 4.648438 -2.128906 3.421875 -3.53125 2.515625 -5.34375 C 1.617188 -7.164062 1.171875 -9.269531 1.171875 -11.65625 Z M 18.5625 -11.609375 C 18.5625 -13.390625 18.066406 -14.789062 17.078125 -15.8125 C 16.097656 -16.84375 14.898438 -17.359375 13.484375 -17.359375 C 12.066406 -17.359375 10.863281 -16.847656 9.875 -15.828125 C 8.894531 -14.816406 8.40625 -13.425781 8.40625 -11.65625 C 8.40625 -9.875 8.894531 -8.460938 9.875 -7.421875 C 10.863281 -6.390625 12.066406 -5.875 13.484375 -5.875 C 14.898438 -5.875 16.097656 -6.382812 17.078125 -7.40625 C 18.066406 -8.4375 18.5625 -9.835938 18.5625 -11.609375 Z M 18.5625 -11.609375 "/></g></g></g><g fill="#000000" fill-opacity="1"><g transform="translate(244.798622, 201.959226)"><g><path d="M 9.703125 -30.796875 L 9.703125 0 L 2.578125 0 L 2.578125 -30.796875 Z M 9.703125 -30.796875 "/></g></g></g></svg>